<?xml version="1.0" ?><!DOCTYPE svg  PUBLIC '-//W3C//DTD SVG 1.1//EN'  'http://www.w3.org/Graphics/SVG/1.1/DTD/svg11.dtd'><svg height="60px" id="Layer_1" style="enable-background:new 0 0 60 60;" version="1.1" viewBox="0 0 60 60" width="60px" xml:space="preserve" xmlns="http://www.w3.org/2000/svg" xmlns:xlink="http://www.w3.org/1999/xlink"><style type="text/css">
<![CDATA[
	.st0{fill:none;stroke:#231F20;stroke-width:1.5;stroke-linecap:round;stroke-linejoin:round;stroke-miterlimit:10;}
]]>
</style><g><path class="st0" d="M44.347,44.498H30.036c-1.99,0-3.683-0.697-5.072-2.096c-1.395-1.399-2.088-3.091-2.088-5.09   v-5.094H43.27c1.839,0,3.424-0.66,4.738-1.974c1.315-1.323,1.976-2.906,1.976-4.748c0-1.847-0.66-3.428-1.979-4.746   c-1.319-1.316-2.908-1.977-4.754-1.977H22.875V8.253c0-1.991-0.708-3.697-2.12-5.116C19.351,1.714,17.656,1,15.682,1   c-2.029,0-3.753,0.703-5.159,2.094C9.114,4.49,8.411,6.21,8.411,8.26v29.058c0,5.977,2.112,11.083,6.341,15.32   C18.982,56.883,24.081,59,30.042,59h14.312c1.984,0,3.689-0.713,5.107-2.138c1.42-1.415,2.129-3.123,2.129-5.112   c0-1.99-0.709-3.694-2.129-5.118C48.042,45.214,46.334,44.498,44.347,44.498z" id="Twitter_2_"/></g></svg>