<?xml version="1.0" standalone="no"?>
<!DOCTYPE svg PUBLIC "-//W3C//DTD SVG 20010904//EN"
 "http://www.w3.org/TR/2001/REC-SVG-20010904/DTD/svg10.dtd">
<svg version="1.0" xmlns="http://www.w3.org/2000/svg"
 width="16.000000pt" height="16.000000pt" viewBox="0 0 16.000000 16.000000"
 preserveAspectRatio="xMidYMid meet">
<metadata>
Created by potrace 1.11, written by Peter Selinger 2001-2013
</metadata>
<g transform="translate(0.000000,16.000000) scale(0.010000,-0.010000)"
fill="#000000" stroke="none">
<path d="M560 1195 c0 -18 -5 -25 -19 -25 -11 0 -22 6 -24 13 -3 6 -6 -14 -6
-45 -1 -32 -5 -58 -11 -58 -5 0 -10 26 -10 58 0 31 -4 52 -8 46 -4 -6 -22 -15
-39 -19 -49 -10 -49 -23 -1 -33 32 -7 36 -10 16 -11 -63 -2 -79 -28 -20 -34
20 -2 -49 -4 -155 -5 l-192 -2 -20 -26 c-14 -17 -21 -40 -20 -63 1 -26 3 -29
6 -11 2 14 6 35 8 48 l5 22 540 0 540 0 0 -90 0 -90 -550 0 -550 0 -1 43 -2
42 -7 -50 c-5 -27 -9 -80 -9 -116 -1 -36 -6 -80 -12 -97 -8 -23 -7 -36 2 -53
10 -19 9 -25 -5 -35 -11 -8 -16 -23 -14 -40 4 -35 35 -45 159 -51 l86 -4 1
-30 c1 -43 27 -78 70 -96 32 -13 42 -14 76 -2 47 17 76 52 79 97 l2 32 293 0
292 0 0 -34 c0 -72 82 -122 152 -93 43 18 69 54 70 96 l1 30 116 4 c64 2 134
8 156 13 35 8 40 13 43 41 3 25 -1 33 -18 38 -16 5 -19 10 -11 18 6 6 11 16
11 21 0 6 -5 4 -10 -4 -7 -11 -10 -3 -10 28 0 24 4 41 9 38 4 -3 6 6 3 19 -2
15 0 25 7 25 15 0 14 40 -2 59 -7 9 -26 63 -42 121 -41 148 -43 150 -197 151
-68 0 -117 3 -110 6 6 2 10 8 7 13 -6 10 -97 1 -109 -11 -21 -19 -28 -7 -24
46 1 30 0 55 -4 55 -5 0 -8 -4 -8 -8 0 -5 -109 -7 -241 -6 -230 3 -242 4 -256
23 -19 28 -33 26 -33 -4z m529 -61 c2 -2 -108 -3 -245 -2 -159 1 -217 4 -159
8 89 5 396 1 404 -6z m-536 -1 c-7 -2 -19 -2 -25 0 -7 3 -2 5 12 5 14 0 19 -2
13 -5z m537 -23 c0 -5 -8 -10 -17 -11 -15 0 -15 -2 2 -9 12 -5 -100 -8 -270
-8 -159 1 -272 4 -250 8 l40 7 -37 2 c-21 0 -38 6 -38 11 0 6 102 10 285 10
183 0 285 -4 285 -10z m-622 -7 c-10 -2 -26 -2 -35 0 -10 3 -2 5 17 5 19 0 27
-2 18 -5z m720 -20 c-10 -2 -26 -2 -35 0 -10 3 -2 5 17 5 19 0 27 -2 18 -5z
m-66 -20 c-188 -2 -496 -2 -685 0 -188 1 -34 2 343 2 377 0 531 -1 342 -2z
m363 -54 c4 -21 10 -37 14 -34 5 2 6 -8 4 -23 -4 -21 -2 -24 6 -12 8 11 9 7 5
-17 -5 -26 -3 -33 10 -33 9 0 16 -4 16 -10 0 -6 -27 -10 -62 -9 -35 1 -54 3
-43 6 31 8 37 17 25 44 -10 24 -10 23 -5 -3 4 -22 2 -28 -12 -28 -23 1 -53 61
-53 107 0 31 2 35 21 30 14 -4 18 -2 12 4 -5 5 -55 8 -114 7 l-104 -3 0 -75 0
-75 105 -6 105 -5 -127 -2 -128 -2 0 90 0 91 159 -2 160 -1 6 -39z m-104 -21
c2 -24 3 -55 1 -70 -3 -25 -7 -28 -42 -28 -39 0 -39 0 -42 43 -3 39 -5 42 -35
45 -34 3 -35 1 -46 -68 -3 -14 -5 8 -6 48 l-1 72 84 0 84 0 3 -42z m196 -220
c-3 -7 -5 -2 -5 12 0 14 2 19 5 13 2 -7 2 -19 0 -25z m-327 -18 c0 -5 -13 -10
-30 -10 -16 0 -30 5 -30 10 0 6 14 10 30 10 17 0 30 -4 30 -10z m240 -150 c0
-5 -7 -10 -15 -10 -8 0 -15 5 -15 10 0 6 7 10 15 10 8 0 15 -4 15 -10z m-1402
-32 c3 -27 1 -28 -37 -28 -36 0 -41 3 -41 23 0 32 9 38 45 35 24 -2 31 -8 33
-30z m1500 0 c3 -25 0 -28 -27 -28 -26 0 -31 4 -31 23 0 30 9 39 35 35 13 -2
21 -12 23 -30z m-1182 -56 c23 -47 -12 -90 -63 -77 -17 4 -23 11 -19 21 3 9 1
12 -4 9 -15 -9 -12 49 2 63 20 20 71 10 84 -16z m810 3 c32 -49 -23 -104 -75
-75 -24 12 -29 68 -9 88 21 21 66 14 84 -13z"/>
<path d="M713 1103 c59 -2 155 -2 215 0 59 1 10 3 -108 3 -118 0 -167 -2 -107
-3z"/>
<path d="M1431 1000 c0 -8 4 -24 9 -35 5 -13 9 -14 9 -5 0 8 -4 24 -9 35 -5
13 -9 14 -9 5z"/>
<path d="M1491 894 c0 -11 3 -14 6 -6 3 7 2 16 -1 19 -3 4 -6 -2 -5 -13z"/>
<path d="M350 485 c0 -8 5 -15 10 -15 6 0 10 7 10 15 0 8 -4 15 -10 15 -5 0
-10 -7 -10 -15z"/>
<path d="M370 450 c-9 -6 -10 -10 -3 -10 6 0 15 5 18 10 8 12 4 12 -15 0z"/>
<path d="M1160 485 c0 -9 5 -15 11 -13 6 2 11 8 11 13 0 5 -5 11 -11 13 -6 2
-11 -4 -11 -13z"/>
<path d="M1128 1149 c4 -38 5 -39 41 -37 l36 1 -32 4 c-18 2 -33 8 -33 12 0 5
21 6 46 3 37 -4 46 -2 42 9 -2 8 -22 19 -44 24 -21 6 -44 13 -49 17 -7 4 -9
-8 -7 -33z"/>
<path d="M216 1018 c-3 -13 -7 -48 -8 -78 l-3 -55 190 0 190 0 0 75 0 75 -182
3 -183 2 -4 -22z m362 -55 l-3 -68 -97 -3 -97 -3 -3 43 c-3 36 -7 44 -26 46
-33 5 -52 -15 -52 -54 0 -34 -1 -34 -45 -34 l-45 0 6 58 c3 31 7 63 10 70 2 9
47 12 179 12 l176 0 -3 -67z"/>
<path d="M674 1026 c-3 -7 -4 -42 -2 -77 l3 -64 199 -3 c138 -2 203 1 212 9 9
7 14 32 14 64 0 91 14 85 -216 85 -163 0 -206 -3 -210 -14z m206 -66 l0 -70
-44 0 -45 0 -3 43 c-3 35 -7 43 -26 45 -33 5 -52 -15 -52 -54 0 -24 -5 -34
-15 -34 -12 0 -15 14 -15 70 l0 70 100 0 100 0 0 -70z m205 0 l0 -65 -97 -3
-98 -3 0 71 0 71 98 -3 97 -3 0 -65z"/>
<path d="M110 998 c0 -13 -3 -40 -6 -60 -6 -37 -6 -38 24 -38 33 0 37 6 47 74
l7 46 -36 0 c-31 0 -36 -3 -36 -22z"/>
<path d="M1581 674 c0 -11 3 -14 6 -6 3 7 2 16 -1 19 -3 4 -6 -2 -5 -13z"/>
</g>
</svg>
